<svg xmlns="http://www.w3.org/2000/svg" width="1440" height="900"><path d="M655,361L771,266L658,204Z" fill="#a0b1d5" stroke="#a0b1d5" stroke-width="1.51"/><path d="M655,361L833,340L771,266Z" fill="#98a6cf" stroke="#98a6cf" stroke-width="1.51"/><path d="M658,204L534,238L655,361Z" fill="#a5bbda" stroke="#a5bbda" stroke-width="1.51"/><path d="M658,204L536,125L534,238Z" fill="#b2c7e0" stroke="#b2c7e0" stroke-width="1.51"/><path d="M592,76L536,125L658,204Z" fill="#b9cbe3" stroke="#b9cbe3" stroke-width="1.51"/><path d="M534,238L514,423L655,361Z" fill="#9db8d8" stroke="#9db8d8" stroke-width="1.51"/><path d="M655,361L786,541L833,340Z" fill="#9097c7" stroke="#9097c7" stroke-width="1.51"/><path d="M415,423L514,423L534,238Z" fill="#a1bbda" stroke="#a1bbda" stroke-width="1.51"/><path d="M750,38L592,76L658,204Z" fill="#b9c6e0" stroke="#b9c6e0" stroke-width="1.51"/><path d="M771,266L750,38L658,204Z" fill="#aeb9d9" stroke="#aeb9d9" stroke-width="1.51"/><path d="M833,340L914,231L771,266Z" fill="#9fa1cc" stroke="#9fa1cc" stroke-width="1.51"/><path d="M912,67L750,38L771,266Z" fill="#b5b3d7" stroke="#b5b3d7" stroke-width="1.51"/><path d="M514,423L677,554L655,361Z" fill="#92a1cc" stroke="#92a1cc" stroke-width="1.51"/><path d="M833,340L947,379L914,231Z" fill="#9995c6" stroke="#9995c6" stroke-width="1.51"/><path d="M677,554L786,541L655,361Z" fill="#8d91c3" stroke="#8d91c3" stroke-width="1.51"/><path d="M958,495L947,379L833,340Z" fill="#9187bf" stroke="#9187bf" stroke-width="1.51"/><path d="M514,423L478,519L677,554Z" fill="#959eca" stroke="#959eca" stroke-width="1.51"/><path d="M374,257L415,423L534,238Z" fill="#acc5df" stroke="#acc5df" stroke-width="1.51"/><path d="M914,231L912,67L771,266Z" fill="#aca6d0" stroke="#aca6d0" stroke-width="1.51"/><path d="M1038,88L912,67L914,231Z" fill="#b4a2ce" stroke="#b4a2ce" stroke-width="1.51"/><path d="M404,108L374,257L534,238Z" fill="#bcd0e5" stroke="#bcd0e5" stroke-width="1.51"/><path d="M404,108L534,238L536,125Z" fill="#bdd2e6" stroke="#bdd2e6" stroke-width="1.51"/><path d="M415,423L478,519L514,423Z" fill="#9cacd2" stroke="#9cacd2" stroke-width="1.51"/><path d="M503,-80L404,108L536,125Z" fill="#cbdceb" stroke="#cbdceb" stroke-width="1.51"/><path d="M503,-80L536,125L592,76Z" fill="#c7d8ea" stroke="#c7d8ea" stroke-width="1.51"/><path d="M786,541L958,495L833,340Z" fill="#8d84bd" stroke="#8d84bd" stroke-width="1.51"/><path d="M415,423L372,476L478,519Z" fill="#a1acd2" stroke="#a1acd2" stroke-width="1.51"/><path d="M249,362L372,476L415,423Z" fill="#aabad9" stroke="#aabad9" stroke-width="1.51"/><path d="M750,38L665,-87L592,76Z" fill="#c3cde4" stroke="#c3cde4" stroke-width="1.51"/><path d="M766,-110L665,-87L750,38Z" fill="#c1c7e1" stroke="#c1c7e1" stroke-width="1.51"/><path d="M947,379L1113,277L914,231Z" fill="#9c8dc2" stroke="#9c8dc2" stroke-width="1.51"/><path d="M958,495L1049,426L947,379Z" fill="#8f7bb8" stroke="#8f7bb8" stroke-width="1.51"/><path d="M942,-64L766,-110L750,38Z" fill="#c2bbdb" stroke="#c2bbdb" stroke-width="1.51"/><path d="M1113,277L1038,88L914,231Z" fill="#ab94c6" stroke="#ab94c6" stroke-width="1.51"/><path d="M942,-64L750,38L912,67Z" fill="#c0b5d8" stroke="#c0b5d8" stroke-width="1.51"/><path d="M958,495L1035,490L1049,426Z" fill="#8c70b3" stroke="#8c70b3" stroke-width="1.51"/><path d="M1044,669L1035,490L958,495Z" fill="#8b61ab" stroke="#8b61ab" stroke-width="1.51"/><path d="M671,-147L503,-80L665,-87Z" fill="#c7d3e7" stroke="#c7d3e7" stroke-width="1.51"/><path d="M665,-87L503,-80L592,76Z" fill="#c8d6e9" stroke="#c8d6e9" stroke-width="1.51"/><path d="M677,554L811,690L786,541Z" fill="#8d76b6" stroke="#8d76b6" stroke-width="1.51"/><path d="M786,541L883,703L958,495Z" fill="#8c6bb1" stroke="#8c6bb1" stroke-width="1.51"/><path d="M478,519L614,684L677,554Z" fill="#948ac0" stroke="#948ac0" stroke-width="1.51"/><path d="M549,717L614,684L478,519Z" fill="#9786be" stroke="#9786be" stroke-width="1.51"/><path d="M1049,426L1113,277L947,379Z" fill="#9481bc" stroke="#9481bc" stroke-width="1.51"/><path d="M1197,367L1113,277L1049,426Z" fill="#9579b6" stroke="#9579b6" stroke-width="1.51"/><path d="M614,684L811,690L677,554Z" fill="#8e75b5" stroke="#8e75b5" stroke-width="1.51"/><path d="M1038,88L942,-64L912,67Z" fill="#bfa9d2" stroke="#bfa9d2" stroke-width="1.51"/><path d="M766,-110L671,-147L665,-87Z" fill="#c3cae2" stroke="#c3cae2" stroke-width="1.51"/><path d="M835,-230L671,-147L766,-110Z" fill="#c2c3df" stroke="#c2c3df" stroke-width="1.51"/><path d="M374,257L249,362L415,423Z" fill="#afc7e0" stroke="#afc7e0" stroke-width="1.51"/><path d="M182,230L249,362L374,257Z" fill="#bfd3e7" stroke="#bfd3e7" stroke-width="1.51"/><path d="M230,123L374,257L404,108Z" fill="#cadbeb" stroke="#cadbeb" stroke-width="1.51"/><path d="M614,684L655,769L811,690Z" fill="#8e6aad" stroke="#8e6aad" stroke-width="1.51"/><path d="M500,771L549,717L390,760Z" fill="#9c79b2" stroke="#9c79b2" stroke-width="1.51"/><path d="M549,717L478,519L390,760Z" fill="#9d86bf" stroke="#9d86bf" stroke-width="1.51"/><path d="M811,690L883,703L786,541Z" fill="#8c66ae" stroke="#8c66ae" stroke-width="1.51"/><path d="M796,817L883,703L811,690Z" fill="#8b56a2" stroke="#8b56a2" stroke-width="1.51"/><path d="M225,-11L230,123L404,108Z" fill="#dbe7f2" stroke="#dbe7f2" stroke-width="1.51"/><path d="M549,717L655,769L614,684Z" fill="#9372b1" stroke="#9372b1" stroke-width="1.51"/><path d="M942,-64L912,-154L766,-110Z" fill="#c2b5d8" stroke="#c2b5d8" stroke-width="1.51"/><path d="M1084,-89L912,-154L942,-64Z" fill="#c2a9d2" stroke="#c2a9d2" stroke-width="1.51"/><path d="M230,123L182,230L374,257Z" fill="#cbdceb" stroke="#cbdceb" stroke-width="1.51"/><path d="M1245,556L1197,367L1049,426Z" fill="#8c65a9" stroke="#8c65a9" stroke-width="1.51"/><path d="M1265,-61L1084,-89L1038,88Z" fill="#c199c8" stroke="#c199c8" stroke-width="1.51"/><path d="M1038,88L1084,-89L942,-64Z" fill="#c2a4d0" stroke="#c2a4d0" stroke-width="1.51"/><path d="M1245,556L1049,426L1035,490Z" fill="#8c63aa" stroke="#8c63aa" stroke-width="1.51"/><path d="M249,362L211,481L372,476Z" fill="#aebbda" stroke="#aebbda" stroke-width="1.51"/><path d="M106,382L211,481L249,362Z" fill="#b9c7e0" stroke="#b9c7e0" stroke-width="1.51"/><path d="M503,-80L305,-68L404,108Z" fill="#d7e4f0" stroke="#d7e4f0" stroke-width="1.51"/><path d="M230,123L122,138L182,230Z" fill="#d9e6f1" stroke="#d9e6f1" stroke-width="1.51"/><path d="M359,-146L305,-68L503,-80Z" fill="#d9e5f0" stroke="#d9e5f0" stroke-width="1.51"/><path d="M549,717L500,771L655,769Z" fill="#9572ae" stroke="#9572ae" stroke-width="1.51"/><path d="M319,682L478,519L372,476Z" fill="#a49dcb" stroke="#a49dcb" stroke-width="1.51"/><path d="M883,703L1044,669L958,495Z" fill="#8b59a8" stroke="#8b59a8" stroke-width="1.51"/><path d="M961,789L1044,669L883,703Z" fill="#89489d" stroke="#89489d" stroke-width="1.51"/><path d="M211,481L270,612L372,476Z" fill="#adabd2" stroke="#adabd2" stroke-width="1.51"/><path d="M912,-154L835,-230L766,-110Z" fill="#c2b9da" stroke="#c2b9da" stroke-width="1.51"/><path d="M531,-245L359,-146L503,-80Z" fill="#d2e1ee" stroke="#d2e1ee" stroke-width="1.51"/><path d="M531,-245L503,-80L671,-147Z" fill="#c9d8ea" stroke="#c9d8ea" stroke-width="1.51"/><path d="M912,-154L1034,-252L835,-230Z" fill="#c2aed5" stroke="#c2aed5" stroke-width="1.51"/><path d="M1276,133L1038,88L1113,277Z" fill="#ae8bbf" stroke="#ae8bbf" stroke-width="1.51"/><path d="M270,612L319,682L372,476Z" fill="#aa9cca" stroke="#aa9cca" stroke-width="1.51"/><path d="M655,769L796,817L811,690Z" fill="#8b5ca3" stroke="#8b5ca3" stroke-width="1.51"/><path d="M752,906L796,817L655,769Z" fill="#815695" stroke="#815695" stroke-width="1.51"/><path d="M260,-245L225,-11L305,-68Z" fill="#e4eef5" stroke="#e4eef5" stroke-width="1.51"/><path d="M305,-68L225,-11L404,108Z" fill="#dfeaf3" stroke="#dfeaf3" stroke-width="1.51"/><path d="M835,-230L531,-245L671,-147Z" fill="#c4cce4" stroke="#c4cce4" stroke-width="1.51"/><path d="M319,682L390,760L478,519Z" fill="#a48cc2" stroke="#a48cc2" stroke-width="1.51"/><path d="M661,974L752,906L655,769Z" fill="#76558b" stroke="#76558b" stroke-width="1.51"/><path d="M796,817L961,789L883,703Z" fill="#894b9a" stroke="#894b9a" stroke-width="1.51"/><path d="M1197,367L1263,272L1113,277Z" fill="#9b79b2" stroke="#9b79b2" stroke-width="1.51"/><path d="M1366,326L1263,272L1197,367Z" fill="#966fa9" stroke="#966fa9" stroke-width="1.51"/><path d="M182,230L106,382L249,362Z" fill="#c1d5e7" stroke="#c1d5e7" stroke-width="1.51"/><path d="M225,-11L122,138L230,123Z" fill="#e2edf5" stroke="#e2edf5" stroke-width="1.51"/><path d="M89,700L243,765L270,612Z" fill="#b492c5" stroke="#b492c5" stroke-width="1.51"/><path d="M270,612L243,765L319,682Z" fill="#ad8ec3" stroke="#ad8ec3" stroke-width="1.51"/><path d="M38,265L106,382L182,230Z" fill="#cadbeb" stroke="#cadbeb" stroke-width="1.51"/><path d="M1263,272L1276,133L1113,277Z" fill="#a57eb4" stroke="#a57eb4" stroke-width="1.51"/><path d="M1044,669L1245,556L1035,490Z" fill="#8a53a3" stroke="#8a53a3" stroke-width="1.51"/><path d="M1263,272L1312,183L1276,133Z" fill="#a67bae" stroke="#a67bae" stroke-width="1.51"/><path d="M1189,703L1245,556L1044,669Z" fill="#883f98" stroke="#883f98" stroke-width="1.51"/><path d="M796,817L971,951L961,789Z" fill="#783e86" stroke="#783e86" stroke-width="1.51"/><path d="M661,974L655,769L500,771Z" fill="#86639a" stroke="#86639a" stroke-width="1.51"/><path d="M1366,326L1312,183L1263,272Z" fill="#9873a6" stroke="#9873a6" stroke-width="1.51"/><path d="M1084,-89L1034,-252L912,-154Z" fill="#c2a5d1" stroke="#c2a5d1" stroke-width="1.51"/><path d="M835,-230L1034,-252L531,-245Z" fill="#c2bedd" stroke="#c2bedd" stroke-width="1.51"/><path d="M1274,-228L1034,-252L1084,-89Z" fill="#c199c8" stroke="#c199c8" stroke-width="1.51"/><path d="M1265,-61L1038,88L1276,133Z" fill="#bb8fc0" stroke="#bb8fc0" stroke-width="1.51"/><path d="M122,138L38,265L182,230Z" fill="#d6e4ef" stroke="#d6e4ef" stroke-width="1.51"/><path d="M1056,836L1189,703L1044,669Z" fill="#873492" stroke="#873492" stroke-width="1.51"/><path d="M1056,836L1044,669L961,789Z" fill="#873993" stroke="#873993" stroke-width="1.51"/><path d="M456,961L661,974L500,771Z" fill="#7a628f" stroke="#7a628f" stroke-width="1.51"/><path d="M319,682L243,765L390,760Z" fill="#aa84b9" stroke="#aa84b9" stroke-width="1.51"/><path d="M89,700L270,612L211,481Z" fill="#b6a3cf" stroke="#b6a3cf" stroke-width="1.51"/><path d="M37,478L211,481L106,382Z" fill="#bac3df" stroke="#bac3df" stroke-width="1.51"/><path d="M1054,908L1056,836L971,951Z" fill="#6c2a76" stroke="#6c2a76" stroke-width="1.51"/><path d="M1372,57L1265,-61L1276,133Z" fill="#b486b3" stroke="#b486b3" stroke-width="1.51"/><path d="M1406,496L1366,326L1197,367Z" fill="#87619c" stroke="#87619c" stroke-width="1.51"/><path d="M1312,183L1372,57L1276,133Z" fill="#a97fad" stroke="#a97fad" stroke-width="1.51"/><path d="M1406,496L1197,367L1245,556Z" fill="#87569b" stroke="#87569b" stroke-width="1.51"/><path d="M-36,471L37,478L106,382Z" fill="#c0c7e1" stroke="#c0c7e1" stroke-width="1.51"/><path d="M225,-11L16,-7L122,138Z" fill="#ebf3f8" stroke="#ebf3f8" stroke-width="1.51"/><path d="M122,138L-61,237L38,265Z" fill="#dbe7f1" stroke="#dbe7f1" stroke-width="1.51"/><path d="M359,-146L260,-245L305,-68Z" fill="#e0ebf3" stroke="#e0ebf3" stroke-width="1.51"/><path d="M531,-245L260,-245L359,-146Z" fill="#d9e6f0" stroke="#d9e6f0" stroke-width="1.51"/><path d="M1034,-252L260,-245L531,-245Z" fill="#c7d4e7" stroke="#c7d4e7" stroke-width="1.51"/><path d="M456,961L500,771L397,951Z" fill="#836893" stroke="#836893" stroke-width="1.51"/><path d="M971,951L1056,836L961,789Z" fill="#763281" stroke="#763281" stroke-width="1.51"/><path d="M397,951L500,771L390,760Z" fill="#9571a4" stroke="#9571a4" stroke-width="1.51"/><path d="M1498,242L1372,57L1312,183Z" fill="#9976a0" stroke="#9976a0" stroke-width="1.51"/><path d="M971,951L796,817L752,906Z" fill="#714382" stroke="#714382" stroke-width="1.51"/><path d="M1056,836L1262,863L1189,703Z" fill="#801f81" stroke="#801f81" stroke-width="1.51"/><path d="M844,1122L971,951L752,906Z" fill="#6e407e" stroke="#6e407e" stroke-width="1.51"/><path d="M248,941L397,951L390,760Z" fill="#8e6f9a" stroke="#8e6f9a" stroke-width="1.51"/><path d="M1340,774L1326,636L1189,703Z" fill="#812584" stroke="#812584" stroke-width="1.51"/><path d="M1189,703L1326,636L1245,556Z" fill="#863791" stroke="#863791" stroke-width="1.51"/><path d="M243,765L248,941L390,760Z" fill="#a27aaa" stroke="#a27aaa" stroke-width="1.51"/><path d="M37,478L89,700L211,481Z" fill="#bbafd5" stroke="#bbafd5" stroke-width="1.51"/><path d="M38,265L-36,471L106,382Z" fill="#c5d4e7" stroke="#c5d4e7" stroke-width="1.51"/><path d="M43,-142L16,-7L225,-11Z" fill="#f1f8fa" stroke="#f1f8fa" stroke-width="1.51"/><path d="M37,478L-24,718L89,700Z" fill="#c0a4d0" stroke="#c0a4d0" stroke-width="1.51"/><path d="M-128,369L-36,471L38,265Z" fill="#c8d6e9" stroke="#c8d6e9" stroke-width="1.51"/><path d="M1366,326L1498,242L1312,183Z" fill="#8d6e9b" stroke="#8d6e9b" stroke-width="1.51"/><path d="M1326,636L1406,496L1245,556Z" fill="#7e418d" stroke="#7e418d" stroke-width="1.51"/><path d="M-93,108L-61,237L122,138Z" fill="#e5eef5" stroke="#e5eef5" stroke-width="1.51"/><path d="M260,-245L43,-142L225,-11Z" fill="#ecf4f8" stroke="#ecf4f8" stroke-width="1.51"/><path d="M16,-7L-93,108L122,138Z" fill="#eef6fa" stroke="#eef6fa" stroke-width="1.51"/><path d="M1316,-249L1274,-228L1421,-108Z" fill="#b386b0" stroke="#b386b0" stroke-width="1.51"/><path d="M1265,-61L1274,-228L1084,-89Z" fill="#c091c0" stroke="#c091c0" stroke-width="1.51"/><path d="M84,798L248,941L243,765Z" fill="#a87eab" stroke="#a87eab" stroke-width="1.51"/><path d="M397,951L413,1045L456,961Z" fill="#846993" stroke="#846993" stroke-width="1.51"/><path d="M89,700L84,798L243,765Z" fill="#b78cbd" stroke="#b78cbd" stroke-width="1.51"/><path d="M-24,718L84,798L89,700Z" fill="#be92c2" stroke="#be92c2" stroke-width="1.51"/><path d="M-72,-6L-93,108L16,-7Z" fill="#f4f9fb" stroke="#f4f9fb" stroke-width="1.51"/><path d="M-61,237L-128,369L38,265Z" fill="#d2e1ee" stroke="#d2e1ee" stroke-width="1.51"/><path d="M248,941L413,1045L397,951Z" fill="#896d96" stroke="#896d96" stroke-width="1.51"/><path d="M512,1139L659,1108L661,974Z" fill="#765b8c" stroke="#765b8c" stroke-width="1.51"/><path d="M661,974L844,1122L752,906Z" fill="#6f4c84" stroke="#6f4c84" stroke-width="1.51"/><path d="M1421,-108L1274,-228L1265,-61Z" fill="#b587b2" stroke="#b587b2" stroke-width="1.51"/><path d="M1514,430L1498,242L1366,326Z" fill="#7a6390" stroke="#7a6390" stroke-width="1.51"/><path d="M-56,-144L-72,-6L16,-7Z" fill="#f7fcfd" stroke="#f7fcfd" stroke-width="1.51"/><path d="M1326,636L1520,527L1406,496Z" fill="#713d80" stroke="#713d80" stroke-width="1.51"/><path d="M1054,908L1262,863L1056,836Z" fill="#712076" stroke="#712076" stroke-width="1.51"/><path d="M1214,1008L1262,863L1054,908Z" fill="#68166a" stroke="#68166a" stroke-width="1.51"/><path d="M1262,863L1340,774L1189,703Z" fill="#81127c" stroke="#81127c" stroke-width="1.51"/><path d="M1406,496L1514,430L1366,326Z" fill="#74568b" stroke="#74568b" stroke-width="1.51"/><path d="M-36,471L-24,718L37,478Z" fill="#c2b3d7" stroke="#c2b3d7" stroke-width="1.51"/><path d="M-189,370L-128,369L-61,237Z" fill="#cdddec" stroke="#cdddec" stroke-width="1.51"/><path d="M1274,-228L1316,-249L1034,-252Z" fill="#c091c0" stroke="#c091c0" stroke-width="1.51"/><path d="M1421,-108L1265,-61L1372,57Z" fill="#b085ad" stroke="#b085ad" stroke-width="1.51"/><path d="M512,1139L661,974L456,961Z" fill="#7a628f" stroke="#7a628f" stroke-width="1.51"/><path d="M971,951L1088,1111L1054,908Z" fill="#6b2975" stroke="#6b2975" stroke-width="1.51"/><path d="M1507,51L1421,-108L1372,57Z" fill="#a37fa1" stroke="#a37fa1" stroke-width="1.51"/><path d="M-163,556L-24,718L-36,471Z" fill="#c2aed5" stroke="#c2aed5" stroke-width="1.51"/><path d="M84,798L29,941L248,941Z" fill="#9d7a9f" stroke="#9d7a9f" stroke-width="1.51"/><path d="M1520,527L1514,430L1406,496Z" fill="#6f4983" stroke="#6f4983" stroke-width="1.51"/><path d="M1498,242L1507,51L1372,57Z" fill="#97779b" stroke="#97779b" stroke-width="1.51"/><path d="M1649,36L1507,51L1498,242Z" fill="#98779c" stroke="#98779c" stroke-width="1.51"/><path d="M659,1108L844,1122L661,974Z" fill="#705086" stroke="#705086" stroke-width="1.51"/><path d="M43,-142L-56,-144L16,-7Z" fill="#f7fcfd" stroke="#f7fcfd" stroke-width="1.51"/><path d="M-178,116L-61,237L-93,108Z" fill="#e6eff6" stroke="#e6eff6" stroke-width="1.51"/><path d="M260,-245L-56,-144L43,-142Z" fill="#f2f8fb" stroke="#f2f8fb" stroke-width="1.51"/><path d="M1649,36L1523,-104L1507,51Z" fill="#a27ea0" stroke="#a27ea0" stroke-width="1.51"/><path d="M1547,679L1520,527L1326,636Z" fill="#6c3078" stroke="#6c3078" stroke-width="1.51"/><path d="M659,1108L512,1139L844,1122Z" fill="#735588" stroke="#735588" stroke-width="1.51"/><path d="M413,1045L512,1139L456,961Z" fill="#806792" stroke="#806792" stroke-width="1.51"/><path d="M268,1154L512,1139L413,1045Z" fill="#856a94" stroke="#856a94" stroke-width="1.51"/><path d="M-128,369L-163,556L-36,471Z" fill="#c1c5e0" stroke="#c1c5e0" stroke-width="1.51"/><path d="M-270,275L-189,370L-61,237Z" fill="#d1e0ee" stroke="#d1e0ee" stroke-width="1.51"/><path d="M-178,116L-93,108L-72,-6Z" fill="#f0f7fa" stroke="#f0f7fa" stroke-width="1.51"/><path d="M-183,-87L-178,116L-72,-6Z" fill="#f6fbfc" stroke="#f6fbfc" stroke-width="1.51"/><path d="M-189,370L-163,556L-128,369Z" fill="#c3cbe3" stroke="#c3cbe3" stroke-width="1.51"/><path d="M844,1122L975,1130L971,951Z" fill="#6d367b" stroke="#6d367b" stroke-width="1.51"/><path d="M512,1139L975,1130L844,1122Z" fill="#6f4983" stroke="#6f4983" stroke-width="1.51"/><path d="M1340,774L1547,679L1326,636Z" fill="#6f2175" stroke="#6f2175" stroke-width="1.51"/><path d="M1262,863L1375,969L1340,774Z" fill="#640561" stroke="#640561" stroke-width="1.51"/><path d="M1088,1111L1214,1008L1054,908Z" fill="#6a1e6f" stroke="#6a1e6f" stroke-width="1.51"/><path d="M248,941L268,1154L413,1045Z" fill="#8d6f97" stroke="#8d6f97" stroke-width="1.51"/><path d="M-24,718L-24,858L84,798Z" fill="#bd8bba" stroke="#bd8bba" stroke-width="1.51"/><path d="M-117,920L-24,858L-269,791Z" fill="#ae84ab" stroke="#ae84ab" stroke-width="1.51"/><path d="M975,1130L1088,1111L971,951Z" fill="#6c2c76" stroke="#6c2c76" stroke-width="1.51"/><path d="M1507,51L1523,-104L1421,-108Z" fill="#a27ea0" stroke="#a27ea0" stroke-width="1.51"/><path d="M1421,-108L1489,-214L1316,-249Z" fill="#a781a5" stroke="#a781a5" stroke-width="1.51"/><path d="M1649,36L1498,242L1693,284Z" fill="#8e7098" stroke="#8e7098" stroke-width="1.51"/><path d="M-24,858L29,941L84,798Z" fill="#a981a7" stroke="#a981a7" stroke-width="1.51"/><path d="M1523,-104L1489,-214L1421,-108Z" fill="#a27ea0" stroke="#a27ea0" stroke-width="1.51"/><path d="M1687,354L1498,242L1514,430Z" fill="#79618f" stroke="#79618f" stroke-width="1.51"/><path d="M1527,860L1547,679L1340,774Z" fill="#670c65" stroke="#670c65" stroke-width="1.51"/><path d="M-178,116L-270,275L-61,237Z" fill="#dee9f2" stroke="#dee9f2" stroke-width="1.51"/><path d="M-56,-144L-183,-87L-72,-6Z" fill="#f7fcfd" stroke="#f7fcfd" stroke-width="1.51"/><path d="M-258,-193L-270,275L-178,116Z" fill="#f1f7fa" stroke="#f1f7fa" stroke-width="1.51"/><path d="M-189,370L-268,679L-163,556Z" fill="#c2b7d9" stroke="#c2b7d9" stroke-width="1.51"/><path d="M512,1139L1330,1145L975,1130Z" fill="#6d357a" stroke="#6d357a" stroke-width="1.51"/><path d="M83,1078L268,1154L248,941Z" fill="#96769b" stroke="#96769b" stroke-width="1.51"/><path d="M1214,1008L1375,969L1262,863Z" fill="#630460" stroke="#630460" stroke-width="1.51"/><path d="M1330,1145L1375,969L1214,1008Z" fill="#60045d" stroke="#60045d" stroke-width="1.51"/><path d="M1523,-104L1660,-212L1489,-214Z" fill="#a27ea0" stroke="#a27ea0" stroke-width="1.51"/><path d="M1687,354L1514,430L1706,515Z" fill="#715387" stroke="#715387" stroke-width="1.51"/><path d="M29,941L83,1078L248,941Z" fill="#9b799d" stroke="#9b799d" stroke-width="1.51"/><path d="M-42,1048L83,1078L29,941Z" fill="#a17da0" stroke="#a17da0" stroke-width="1.51"/><path d="M1330,1145L1225,1128L975,1130Z" fill="#68166a" stroke="#68166a" stroke-width="1.51"/><path d="M975,1130L1225,1128L1088,1111Z" fill="#6a2171" stroke="#6a2171" stroke-width="1.51"/><path d="M1088,1111L1225,1128L1214,1008Z" fill="#68166a" stroke="#68166a" stroke-width="1.51"/><path d="M1706,515L1514,430L1520,527Z" fill="#6f4882" stroke="#6f4882" stroke-width="1.51"/><path d="M1687,354L1693,284L1498,242Z" fill="#806692" stroke="#806692" stroke-width="1.51"/><path d="M1514,903L1340,774L1375,969Z" fill="#550153" stroke="#550153" stroke-width="1.51"/><path d="M1514,903L1527,860L1340,774Z" fill="#590256" stroke="#590256" stroke-width="1.51"/><path d="M1711,644L1706,515L1520,527Z" fill="#6d3a7c" stroke="#6d3a7c" stroke-width="1.51"/><path d="M-24,858L-117,920L29,941Z" fill="#a27ea0" stroke="#a27ea0" stroke-width="1.51"/><path d="M-269,791L-24,858L-24,718Z" fill="#bf8cbb" stroke="#bf8cbb" stroke-width="1.51"/><path d="M-268,679L-24,718L-163,556Z" fill="#c1a2cf" stroke="#c1a2cf" stroke-width="1.51"/><path d="M1566,1126L1514,903L1375,969Z" fill="#4d004b" stroke="#4d004b" stroke-width="1.51"/><path d="M1711,644L1520,527L1547,679Z" fill="#6c3077" stroke="#6c3077" stroke-width="1.51"/><path d="M-270,275L-268,679L-189,370Z" fill="#c2c9e2" stroke="#c2c9e2" stroke-width="1.51"/><path d="M1687,354L1706,515L1693,284Z" fill="#765b8c" stroke="#765b8c" stroke-width="1.51"/><path d="M1647,789L1547,679L1527,860Z" fill="#670a64" stroke="#670a64" stroke-width="1.51"/><path d="M1649,36L1692,-38L1523,-104Z" fill="#a27ea0" stroke="#a27ea0" stroke-width="1.51"/><path d="M1693,284L1692,-38L1649,36Z" fill="#99799c" stroke="#99799c" stroke-width="1.51"/><path d="M1706,515L1692,-38L1693,284Z" fill="#856a94" stroke="#856a94" stroke-width="1.51"/><path d="M-117,920L-42,1048L29,941Z" fill="#a27ea0" stroke="#a27ea0" stroke-width="1.51"/><path d="M83,1078L-216,1081L268,1154Z" fill="#9f7d9f" stroke="#9f7d9f" stroke-width="1.51"/><path d="M-171,940L-42,1048L-117,920Z" fill="#a27ea0" stroke="#a27ea0" stroke-width="1.51"/><path d="M-56,-144L-258,-193L-183,-87Z" fill="#f7fcfd" stroke="#f7fcfd" stroke-width="1.51"/><path d="M-183,-87L-258,-193L-178,116Z" fill="#f7fcfd" stroke="#f7fcfd" stroke-width="1.51"/><path d="M260,-245L-258,-193L-56,-144Z" fill="#f7fcfd" stroke="#f7fcfd" stroke-width="1.51"/><path d="M268,1154L1330,1145L512,1139Z" fill="#715187" stroke="#715187" stroke-width="1.51"/><path d="M1225,1128L1330,1145L1214,1008Z" fill="#660763" stroke="#660763" stroke-width="1.51"/><path d="M-269,791L-171,940L-117,920Z" fill="#a680a4" stroke="#a680a4" stroke-width="1.51"/><path d="M-270,275L-269,791L-268,679Z" fill="#c2aed5" stroke="#c2aed5" stroke-width="1.51"/><path d="M-268,679L-269,791L-24,718Z" fill="#c095c4" stroke="#c095c4" stroke-width="1.51"/><path d="M1694,971L1527,860L1514,903Z" fill="#4d004b" stroke="#4d004b" stroke-width="1.51"/><path d="M1694,971L1647,789L1527,860Z" fill="#530150" stroke="#530150" stroke-width="1.51"/><path d="M1706,515L1711,644L1692,-38Z" fill="#775c8d" stroke="#775c8d" stroke-width="1.51"/><path d="M1647,789L1711,644L1547,679Z" fill="#6a1d6e" stroke="#6a1d6e" stroke-width="1.51"/><path d="M1489,-214L1660,-212L1316,-249Z" fill="#a27ea0" stroke="#a27ea0" stroke-width="1.51"/><path d="M1692,-38L1660,-212L1523,-104Z" fill="#a27ea0" stroke="#a27ea0" stroke-width="1.51"/><path d="M-269,791L-216,1081L-171,940Z" fill="#a27ea0" stroke="#a27ea0" stroke-width="1.51"/><path d="M-171,940L-216,1081L-42,1048Z" fill="#a27ea0" stroke="#a27ea0" stroke-width="1.51"/><path d="M-42,1048L-216,1081L83,1078Z" fill="#a27ea0" stroke="#a27ea0" stroke-width="1.51"/><path d="M1647,789L1694,971L1711,644Z" fill="#630560" stroke="#630560" stroke-width="1.51"/><path d="M1330,1145L1566,1126L1375,969Z" fill="#4f004d" stroke="#4f004d" stroke-width="1.51"/><path d="M1566,1126L1694,971L1514,903Z" fill="#4d004b" stroke="#4d004b" stroke-width="1.51"/><path d="M1566,1126L1643,1122L1694,971Z" fill="#4d004b" stroke="#4d004b" stroke-width="1.51"/><path d="M1330,1145L1643,1122L1566,1126Z" fill="#4d004b" stroke="#4d004b" stroke-width="1.51"/></svg>